# xmcd CD Database Entry
#
# Track frame offsets:
# 150
# 25092
# 48917
# 63677
# 89080
# 95502
# 117236
# 138794
# 157689
# 187206
# 198533
# 222271
# 244952
# 288733
#
# Disc length: 4237 seconds
#
# Revision: 4
# Processed by: cddbd v1.4PL0 Copyright (c) Steve Scherf et al.
# Submitted via: PegasusMail 3.12c
#
DISCID=d3108b0e
DTITLE=Chemical Brothers - Exit Planet Dust
DYEAR=1995
DGENRE=Electronic
TTITLE0=Leave Home
TTITLE1=In Dust We Trust
TTITLE2=Song To the Siren
TTITLE3=Three Little Birdies Down Beats
TTITLE4=Fuck Up Beats
TTITLE5=Chemical Beats
TTITLE6=Chico's Groove
TTITLE7=One To Many Mornings
TTITLE8=Life Is Sweet
TTITLE9=Playground For a Wedgeless Firm
TTITLE10=Alive Alone
TTITLE11=Chemical Beats (Dave Clarke Remix)
TTITLE12=Block Rocking Beats (Micronauts Mix)
TTITLE13=Music Response (Futureshock Main Response)
EXTD=
EXTT0=
EXTT1=
EXTT2=
EXTT3=
EXTT4=
EXTT5=
EXTT6=
EXTT7=
EXTT8=
EXTT9=
EXTT10=
EXTT11=
EXTT12=
EXTT13=
PLAYORDER=
